<svg xmlns="http://www.w3.org/2000/svg" version="1.1" xmlns:xlink="http://www.w3.org/1999/xlink" xmlns:svgjs="http://svgjs.dev/svgjs" width="1000" height="1125" viewBox="0 0 1000 1125"><g transform="matrix(1,0,0,1,0,0)"><svg viewBox="0 0 320 360" data-background-color="#ffffff" preserveAspectRatio="xMidYMid meet" height="1125" width="1000" xmlns="http://www.w3.org/2000/svg" xmlns:xlink="http://www.w3.org/1999/xlink"><g id="tight-bounds" transform="matrix(1,0,0,1,0,0)"><svg viewBox="0 0 320 360" height="360" width="320"><g><svg></svg></g><g><svg viewBox="0 0 320 360" height="360" width="320"><g><path d="M297.491 100.645c-12.426-21.51-112.674-79.355-137.491-79.355-24.817 0-125.028 57.845-137.491 79.355-11.591 20.02-11.591 138.726 0 158.746 12.463 21.474 112.674 79.319 137.491 79.319 24.817 0 125.064-57.845 137.491-79.355 11.591-20.02 11.591-138.69 0-158.71zM309.481 93.705c-14.461-24.998-119.469-86.295-149.481-86.295-30.012 0-135.02 61.297-149.481 86.295-14.025 24.199-14.025 148.391 0 172.59 14.461 24.998 119.469 86.295 149.481 86.295 30.012 0 135.02-61.297 149.481-86.259 14.025-24.235 14.025-148.427 0-172.626zM300.906 261.353c-12.753 22.055-115.472 81.317-140.906 81.318-25.434 0-128.153-59.298-140.906-81.354-11.881-20.529-11.881-142.178 0-162.707 12.753-22.019 115.472-81.281 140.906-81.281 25.434 0 128.153 59.298 140.906 81.318 11.881 20.529 11.881 142.178 0 162.706z" fill="#ea5f36" fill-rule="nonzero" stroke="none" stroke-width="1" stroke-linecap="butt" stroke-linejoin="miter" stroke-miterlimit="10" stroke-dasharray="" stroke-dashoffset="0" font-family="none" font-weight="none" font-size="none" text-anchor="none" style="mix-blend-mode: normal" data-fill-palette-color="tertiary"></path></g><g transform="matrix(1,0,0,1,95.55891238670694,90)"><svg viewBox="0 0 128.88217522658613 180" height="180" width="128.88217522658613"><g><svg viewBox="0 0 128.88217522658613 180" height="180" width="128.88217522658613"><g><svg viewBox="0 0 128.88217522658613 180" height="180" width="128.88217522658613"><g><svg viewBox="0 0 128.88217522658613 180" height="180" width="128.88217522658613"><g id="textblocktransform"><svg viewBox="0 0 128.88217522658613 180" height="180" width="128.88217522658613" id="textblock"><g><svg viewBox="0 0 128.88217522658613 180" height="180" width="128.88217522658613"><g transform="matrix(1,0,0,1,0,0)"><svg width="128.88217522658613" viewBox="2.55 -32.5 23.7 33.1" height="180" data-palette-color="#ffffff"><path d="M13.6 0.6L13.6 0.6Q12.25 0.6 10.78 0.33 9.3 0.05 7.85-0.58 6.4-1.2 5.05-2.23 3.7-3.25 2.55-4.75L2.55-4.75 7.4-10.1Q8.8-8.5 10.3-7.65 11.8-6.8 13.3-6.8L13.3-6.8Q14.35-6.8 15.15-7.03 15.95-7.25 16.53-7.85 17.1-8.45 17.38-9.45 17.65-10.45 17.65-12L17.65-12 17.65-25.3 5.3-25.3 5.3-32.5 26.25-32.5 26.25-11.3Q26.25-8.85 25.6-6.7 24.95-4.55 23.45-2.93 21.95-1.3 19.53-0.35 17.1 0.6 13.6 0.6Z" opacity="1" transform="matrix(1,0,0,1,0,0)" fill="#ffffff" class="wordmark-text-0" data-fill-palette-color="quaternary" id="text-0"></path></svg></g></svg></g></svg></g></svg></g><g></g></svg></g></svg></g></svg></g></svg></g><defs></defs></svg><rect width="320" height="360" fill="none" stroke="none" visibility="hidden"></rect></g></svg></g></svg>